<svg width="233" height="40" viewBox="0 0 233 40" fill="none" xmlns="http://www.w3.org/2000/svg">
<path d="M34.1422 5.85781C30.3647 2.08031 25.3422 0 20 0C14.6578 0 9.63531 2.08031 5.85781 5.85781C2.08031 9.63531 0 14.6578 0 20C0 25.3422 2.08039 30.3646 5.85781 34.1422C9.63523 37.9198 14.6578 40 20 40C25.3422 40 30.3647 37.9197 34.1422 34.1422C37.9197 30.3647 40 25.3422 40 20C40 14.6578 37.9196 9.63539 34.1422 5.85781Z" fill="#33CC95"/>
<g clip-path="url(#clip0_38114:203)">
<path d="M20.5714 8V33.1429" stroke="white" stroke-width="2" stroke-linecap="round" stroke-linejoin="round"/>
<path d="M26.2857 12.5714H17.7143C16.6534 12.5714 15.636 12.9929 14.8859 13.743C14.1357 14.4931 13.7143 15.5106 13.7143 16.5714C13.7143 17.6323 14.1357 18.6497 14.8859 19.3999C15.636 20.15 16.6534 20.5714 17.7143 20.5714H23.4286C24.4894 20.5714 25.5069 20.9929 26.257 21.743C27.0072 22.4932 27.4286 23.5106 27.4286 24.5714C27.4286 25.6323 27.0072 26.6497 26.257 27.3999C25.5069 28.15 24.4894 28.5714 23.4286 28.5714H13.7143" stroke="white" stroke-width="2" stroke-linecap="round" stroke-linejoin="round"/>
</g>
<path d="M50.9897 22.256C50.9897 20.7307 51.3197 19.374 51.9797 18.186C52.6397 16.9833 53.5563 16.052 54.7297 15.392C55.9177 14.7173 57.2597 14.38 58.7557 14.38C60.589 14.38 62.1583 14.864 63.4637 15.832C64.769 16.8 65.6417 18.12 66.0817 19.792H61.9457C61.6377 19.1467 61.1977 18.6553 60.6257 18.318C60.0683 17.9807 59.4303 17.812 58.7117 17.812C57.553 17.812 56.6143 18.2153 55.8957 19.022C55.177 19.8287 54.8177 20.9067 54.8177 22.256C54.8177 23.6053 55.177 24.6833 55.8957 25.49C56.6143 26.2967 57.553 26.7 58.7117 26.7C59.4303 26.7 60.0683 26.5313 60.6257 26.194C61.1977 25.8567 61.6377 25.3653 61.9457 24.72H66.0817C65.6417 26.392 64.769 27.712 63.4637 28.68C62.1583 29.6333 60.589 30.11 58.7557 30.11C57.2597 30.11 55.9177 29.78 54.7297 29.12C53.5563 28.4453 52.6397 27.514 51.9797 26.326C51.3197 25.138 50.9897 23.7813 50.9897 22.256ZM72.1475 19.77C72.5875 19.0953 73.1375 18.5673 73.7975 18.186C74.4575 17.79 75.1908 17.592 75.9975 17.592V21.574H74.9635C74.0248 21.574 73.3208 21.7793 72.8515 22.19C72.3822 22.586 72.1475 23.29 72.1475 24.302V30H68.3855V17.724H72.1475V19.77ZM89.3676 23.664C89.3676 24.016 89.3456 24.3827 89.3016 24.764H80.7876C80.8463 25.5267 81.0883 26.1133 81.5136 26.524C81.9536 26.92 82.489 27.118 83.1196 27.118C84.0583 27.118 84.711 26.722 85.0776 25.93H89.0816C88.8763 26.7367 88.5023 27.4627 87.9596 28.108C87.4316 28.7533 86.7643 29.2593 85.9576 29.626C85.151 29.9927 84.249 30.176 83.2516 30.176C82.049 30.176 80.9783 29.9193 80.0396 29.406C79.101 28.8927 78.3676 28.1593 77.8396 27.206C77.3116 26.2527 77.0476 25.138 77.0476 23.862C77.0476 22.586 77.3043 21.4713 77.8176 20.518C78.3456 19.5647 79.079 18.8313 80.0176 18.318C80.9563 17.8047 82.0343 17.548 83.2516 17.548C84.4396 17.548 85.4956 17.7973 86.4196 18.296C87.3436 18.7947 88.0623 19.506 88.5756 20.43C89.1036 21.354 89.3676 22.432 89.3676 23.664ZM85.5176 22.674C85.5176 22.0287 85.2976 21.5153 84.8576 21.134C84.4176 20.7527 83.8676 20.562 83.2076 20.562C82.577 20.562 82.0416 20.7453 81.6016 21.112C81.1763 21.4787 80.9123 21.9993 80.8096 22.674H85.5176ZM95.1143 19.462C95.4809 18.89 95.9869 18.428 96.6323 18.076C97.2776 17.724 98.0329 17.548 98.8983 17.548C99.9103 17.548 100.827 17.8047 101.648 18.318C102.47 18.8313 103.115 19.5647 103.584 20.518C104.068 21.4713 104.31 22.5787 104.31 23.84C104.31 25.1013 104.068 26.216 103.584 27.184C103.115 28.1373 102.47 28.878 101.648 29.406C100.827 29.9193 99.9103 30.176 98.8983 30.176C98.0476 30.176 97.2923 30 96.6323 29.648C95.9869 29.296 95.4809 28.8413 95.1143 28.284V35.852H91.3523V17.724H95.1143V19.462ZM100.482 23.84C100.482 22.9013 100.218 22.168 99.6903 21.64C99.1769 21.0973 98.5389 20.826 97.7763 20.826C97.0283 20.826 96.3903 21.0973 95.8623 21.64C95.3489 22.1827 95.0923 22.9233 95.0923 23.862C95.0923 24.8007 95.3489 25.5413 95.8623 26.084C96.3903 26.6267 97.0283 26.898 97.7763 26.898C98.5243 26.898 99.1623 26.6267 99.6903 26.084C100.218 25.5267 100.482 24.7787 100.482 23.84ZM105.536 23.84C105.536 22.5787 105.771 21.4713 106.24 20.518C106.724 19.5647 107.377 18.8313 108.198 18.318C109.019 17.8047 109.936 17.548 110.948 17.548C111.813 17.548 112.569 17.724 113.214 18.076C113.874 18.428 114.38 18.89 114.732 19.462V17.724H118.494V30H114.732V28.262C114.365 28.834 113.852 29.296 113.192 29.648C112.547 30 111.791 30.176 110.926 30.176C109.929 30.176 109.019 29.9193 108.198 29.406C107.377 28.878 106.724 28.1373 106.24 27.184C105.771 26.216 105.536 25.1013 105.536 23.84ZM114.732 23.862C114.732 22.9233 114.468 22.1827 113.94 21.64C113.427 21.0973 112.796 20.826 112.048 20.826C111.3 20.826 110.662 21.0973 110.134 21.64C109.621 22.168 109.364 22.9013 109.364 23.84C109.364 24.7787 109.621 25.5267 110.134 26.084C110.662 26.6267 111.3 26.898 112.048 26.898C112.796 26.898 113.427 26.6267 113.94 26.084C114.468 25.5413 114.732 24.8007 114.732 23.862ZM124.978 13.72V30H121.216V13.72H124.978ZM126.956 23.84C126.956 22.5787 127.191 21.4713 127.66 20.518C128.144 19.5647 128.797 18.8313 129.618 18.318C130.439 17.8047 131.356 17.548 132.368 17.548C133.175 17.548 133.908 17.7167 134.568 18.054C135.243 18.3913 135.771 18.846 136.152 19.418V13.72H139.914V30H136.152V28.24C135.8 28.8267 135.294 29.296 134.634 29.648C133.989 30 133.233 30.176 132.368 30.176C131.356 30.176 130.439 29.9193 129.618 29.406C128.797 28.878 128.144 28.1373 127.66 27.184C127.191 26.216 126.956 25.1013 126.956 23.84ZM136.152 23.862C136.152 22.9233 135.888 22.1827 135.36 21.64C134.847 21.0973 134.216 20.826 133.468 20.826C132.72 20.826 132.082 21.0973 131.554 21.64C131.041 22.168 130.784 22.9013 130.784 23.84C130.784 24.7787 131.041 25.5267 131.554 26.084C132.082 26.6267 132.72 26.898 133.468 26.898C134.216 26.898 134.847 26.6267 135.36 26.084C135.888 25.5413 136.152 24.8007 136.152 23.862ZM144.527 16.448C143.867 16.448 143.325 16.2573 142.899 15.876C142.489 15.48 142.283 14.996 142.283 14.424C142.283 13.8373 142.489 13.3533 142.899 12.972C143.325 12.576 143.867 12.378 144.527 12.378C145.173 12.378 145.701 12.576 146.111 12.972C146.537 13.3533 146.749 13.8373 146.749 14.424C146.749 14.996 146.537 15.48 146.111 15.876C145.701 16.2573 145.173 16.448 144.527 16.448ZM146.397 17.724V30H142.635V17.724H146.397ZM169.45 17.592C170.975 17.592 172.185 18.054 173.08 18.978C173.989 19.902 174.444 21.1853 174.444 22.828V30H170.704V23.334C170.704 22.542 170.491 21.9333 170.066 21.508C169.655 21.068 169.083 20.848 168.35 20.848C167.617 20.848 167.037 21.068 166.612 21.508C166.201 21.9333 165.996 22.542 165.996 23.334V30H162.256V23.334C162.256 22.542 162.043 21.9333 161.618 21.508C161.207 21.068 160.635 20.848 159.902 20.848C159.169 20.848 158.589 21.068 158.164 21.508C157.753 21.9333 157.548 22.542 157.548 23.334V30H153.786V17.724H157.548V19.264C157.929 18.7507 158.428 18.3473 159.044 18.054C159.66 17.746 160.357 17.592 161.134 17.592C162.058 17.592 162.879 17.79 163.598 18.186C164.331 18.582 164.903 19.1467 165.314 19.88C165.739 19.2053 166.319 18.6553 167.052 18.23C167.785 17.8047 168.585 17.592 169.45 17.592ZM182.663 30.176C181.46 30.176 180.375 29.9193 179.407 29.406C178.454 28.8927 177.698 28.1593 177.141 27.206C176.598 26.2527 176.327 25.138 176.327 23.862C176.327 22.6007 176.606 21.4933 177.163 20.54C177.72 19.572 178.483 18.8313 179.451 18.318C180.419 17.8047 181.504 17.548 182.707 17.548C183.91 17.548 184.995 17.8047 185.963 18.318C186.931 18.8313 187.694 19.572 188.251 20.54C188.808 21.4933 189.087 22.6007 189.087 23.862C189.087 25.1233 188.801 26.238 188.229 27.206C187.672 28.1593 186.902 28.8927 185.919 29.406C184.951 29.9193 183.866 30.176 182.663 30.176ZM182.663 26.92C183.382 26.92 183.99 26.656 184.489 26.128C185.002 25.6 185.259 24.8447 185.259 23.862C185.259 22.8793 185.01 22.124 184.511 21.596C184.027 21.068 183.426 20.804 182.707 20.804C181.974 20.804 181.365 21.068 180.881 21.596C180.397 22.1093 180.155 22.8647 180.155 23.862C180.155 24.8447 180.39 25.6 180.859 26.128C181.343 26.656 181.944 26.92 182.663 26.92ZM198.563 17.592C200 17.592 201.144 18.0613 201.995 19C202.86 19.924 203.293 21.2 203.293 22.828V30H199.553V23.334C199.553 22.5127 199.34 21.8747 198.915 21.42C198.489 20.9653 197.917 20.738 197.199 20.738C196.48 20.738 195.908 20.9653 195.483 21.42C195.057 21.8747 194.845 22.5127 194.845 23.334V30H191.083V17.724H194.845V19.352C195.226 18.8093 195.739 18.384 196.385 18.076C197.03 17.7533 197.756 17.592 198.563 17.592ZM217.479 23.664C217.479 24.016 217.457 24.3827 217.413 24.764H208.899C208.958 25.5267 209.2 26.1133 209.625 26.524C210.065 26.92 210.6 27.118 211.231 27.118C212.17 27.118 212.822 26.722 213.189 25.93H217.193C216.988 26.7367 216.614 27.4627 216.071 28.108C215.543 28.7533 214.876 29.2593 214.069 29.626C213.262 29.9927 212.36 30.176 211.363 30.176C210.16 30.176 209.09 29.9193 208.151 29.406C207.212 28.8927 206.479 28.1593 205.951 27.206C205.423 26.2527 205.159 25.138 205.159 23.862C205.159 22.586 205.416 21.4713 205.929 20.518C206.457 19.5647 207.19 18.8313 208.129 18.318C209.068 17.8047 210.146 17.548 211.363 17.548C212.551 17.548 213.607 17.7973 214.531 18.296C215.455 18.7947 216.174 19.506 216.687 20.43C217.215 21.354 217.479 22.432 217.479 23.664ZM213.629 22.674C213.629 22.0287 213.409 21.5153 212.969 21.134C212.529 20.7527 211.979 20.562 211.319 20.562C210.688 20.562 210.153 20.7453 209.713 21.112C209.288 21.4787 209.024 21.9993 208.921 22.674H213.629ZM232.004 17.724L224.304 35.83H220.256L223.072 29.582L218.078 17.724H222.28L225.118 25.402L227.934 17.724H232.004Z" fill="white"/>
<defs>
<clipPath id="clip0_38114:203">
<rect width="27.4286" height="27.4286" fill="white" transform="translate(6.85715 6.85714)"/>
</clipPath>
</defs>
</svg>
